<?xml version="1.0" standalone="no"?><!DOCTYPE svg PUBLIC "-//W3C//DTD SVG 1.1//EN" "http://www.w3.org/Graphics/SVG/1.1/DTD/svg11.dtd"><svg t="1514531811819" class="icon" style="" viewBox="0 0 1024 1024" version="1.1" xmlns="http://www.w3.org/2000/svg" p-id="8055" xmlns:xlink="http://www.w3.org/1999/xlink" width="200" height="200"><defs><style type="text/css"></style></defs><path d="M935.733 130.093h-262.49c-49.755 0-96.506 18.43-131.735 51.882-11.959 11.424-21.334 24.46-29.556 38.077-8.184-13.617-17.502-26.653-29.564-38.077-35.203-33.452-81.98-51.882-131.69-51.882H88.267c-13.86 0-25.08 10.638-25.08 23.824V813.63c0 13.241 11.22 23.937 25.08 23.937H324.43c9.86 0 19.88 0.787 29.91 2.567a173.45 173.45 0 0 1 28.939 7.942l119.57 44.22c0.263 0.17 0.542 0.056 0.711 0.17 2.753 0.897 5.564 1.44 8.391 1.44 2.922 0 5.676-0.543 8.39-1.44 0.17-0.114 0.468-0.114 0.647-0.17l114.935-42.46c10.947-4.028 22.271-7.155 33.845-9.196 11.378-2.06 23.243-3.072 35.034-3.072h230.93c13.877 0 25.078-10.695 25.078-23.937V153.917c0.001-13.186-11.2-23.824-25.078-23.824zM363.461 793.292c-12.867-2.286-26.014-3.41-39.031-3.41H113.27V177.705h237.428c36.327 0 70.602 13.56 96.318 38.078 25.735 24.441 39.951 57.05 39.951 91.718v527.764l-85.642-31.653c-12.502-4.589-25.247-8.053-37.864-10.32z m547.266-3.41H704.804c-14.985 0-29.94 1.274-44.25 3.822-14.505 2.696-29.004 6.611-42.77 11.724l-80.751 29.836V307.5c0-34.668 14.16-67.277 39.874-91.718 25.726-24.518 60.01-38.078 96.338-38.078h237.483v612.179z" fill="" p-id="8056"></path></svg>