<?xml version="1.0" standalone="no"?><!DOCTYPE svg PUBLIC "-//W3C//DTD SVG 1.1//EN" "http://www.w3.org/Graphics/SVG/1.1/DTD/svg11.dtd"><svg t="1513581999153" class="icon" style="" viewBox="0 0 1024 1024" version="1.1" xmlns="http://www.w3.org/2000/svg" p-id="2534" xmlns:xlink="http://www.w3.org/1999/xlink" width="200" height="200"><defs><style type="text/css"></style></defs><path d="M512 441.984m-128 0a2 2 0 1 0 256 0 2 2 0 1 0-256 0Z" p-id="2535"></path><path d="M640 1024c-40.704 0-84.16-12.992-128-35.584C468.16 1011.008 424.704 1024 384 1024c-35.392 0-64-28.608-64-64 0-34.752 27.776-63.04 62.272-64C243.2 769.984 128 578.112 128 448c0-211.776 172.224-384 384-384s384 172.224 384 384c0 130.112-115.2 321.984-254.272 448C676.224 896.96 704 925.248 704 960 704 995.392 675.392 1024 640 1024zM512 192C370.816 192 256 306.816 256 448c0 112.576 132.544 297.984 256 390.976C635.456 745.984 768 560.576 768 448 768 306.816 653.184 192 512 192z" p-id="2536"></path><path d="M381.312 1024l-128 0c-35.392 0-64-28.608-64-64s28.608-64 64-64l128 0c35.392 0 64 28.608 64 64S416.704 1024 381.312 1024z" p-id="2537"></path><path d="M768 1024l-128 0c-35.392 0-64-28.608-64-64s28.608-64 64-64l128 0c35.392 0 64 28.608 64 64S803.392 1024 768 1024z" p-id="2538"></path></svg>