<?xml version="1.0" standalone="no"?><!DOCTYPE svg PUBLIC "-//W3C//DTD SVG 1.1//EN" "http://www.w3.org/Graphics/SVG/1.1/DTD/svg11.dtd"><svg t="1514535359221" class="icon" style="" viewBox="0 0 1024 1024" version="1.1" xmlns="http://www.w3.org/2000/svg" p-id="24221" xmlns:xlink="http://www.w3.org/1999/xlink" width="200" height="200"><defs><style type="text/css"></style></defs><path d="M762.135112 277.787963a275.880012 275.880012 0 1 0-397.485659 245.746776 412.015925 412.015925 0 0 0-171.047558 102.44325C114.904415 703.749042 49.566979 829.694265 49.566979 940.621629a23.111899 23.111899 0 0 0 45.980002 0c0-97.616081 61.192898-212.24915 130.723632-281.341051a366.279719 366.279719 0 0 1 249.501241-106.782826h9.605579a275.197382 275.197382 0 0 0 276.708919-274.709789z m-271.97927 228.144676l-4.778409-1.121464h-10.483246a230.143807 230.143807 0 1 1 14.383988 0l0.877667 1.121464z m424.742097 212.834262h-14.969099v-58.023545c0-69.725772-49.734467-124.336167-120.289146-124.336166-70.895995 0-119.216442 55.780618-119.216442 124.336166v58.023545h-14.9691c-33.010033 0-59.827638 27.256438-59.827638 60.754064v182.359711c0 33.497626 26.866364 60.754064 59.827638 60.754064h269.443787c33.010033 0 59.827638-27.256438 59.827638-60.754064v-182.359711a60.315231 60.315231 0 0 0-59.827638-60.754064z m-220.050635-59.778879c0-45.151094 36.081868-86.011372 85.718816-86.011372 49.051837 0 84.938668 40.080129 84.938668 86.011372v50.514615h-170.657484v-50.514615z m243.796405 299.77206a28.767976 28.767976 0 0 1-28.767976 28.670457h-259.399375a28.767976 28.767976 0 0 1-28.816735-28.670457v-171.876466a28.767976 28.767976 0 0 1 28.816735-28.621698h259.301857a28.767976 28.767976 0 0 1 28.816735 28.621698v171.876466z" p-id="24222"></path><path d="M780.176046 809.897997a30.181995 30.181995 0 0 0-29.938199 30.377032c0 11.263394 7.947763 21.064009 16.870711 26.330012v49.636948c0 8.386596 4.77841 15.212896 13.067488 15.212896s13.067487-6.826299 13.067487-15.212896v-49.588189c8.922948-5.266002 16.870711-15.115377 16.870711-26.330012A30.181995 30.181995 0 0 0 780.176046 809.946756v-0.048759z" p-id="24223"></path></svg>