<?xml version="1.0" standalone="no"?><!DOCTYPE svg PUBLIC "-//W3C//DTD SVG 1.1//EN" "http://www.w3.org/Graphics/SVG/1.1/DTD/svg11.dtd"><svg t="1514030968973" class="icon" style="" viewBox="0 0 1024 1024" version="1.1" xmlns="http://www.w3.org/2000/svg" p-id="1035" xmlns:xlink="http://www.w3.org/1999/xlink" width="200" height="200"><defs><style type="text/css"></style></defs><path d="M512.780201 0c-282.62921 0-511.756315 229.127106-511.756316 511.756315s229.127106 511.756315 511.756316 511.756316 511.756315-229.127106 511.756315-511.756316S795.40941 0 512.780201 0zM848.402643 342.902267L455.939207 729.169149c-24.820004 24.432976-64.568256 23.892364-88.847649-1.23583l-182.005856-179.564912c-11.962052-12.40949-13.352489-33.643848-3.585646-47.599405-0.154607 0.185323-0.370646 0.278497-0.525253 0.46382l0.849825-1.174397c-0.154607 0.200682-0.185323 0.479178-0.324572 0.710577 10.478442-13.55317 35.869775-16.211176 49.485402-5.795191l129.816372 95.971843c27.756507 21.265074 71.800982 20.53914 98.799815-1.932072l350.443182-284.221351c11.807446-9.844657 29.08551-9.813941 41.71104-1.359719-1.14368-1.668933-1.869615-3.507831-3.353224-5.0068l8.515654 8.422481c-1.514326-1.48361-3.415681-2.272002-5.161406-3.415681 8.298591 12.25386 7.634089 28.6821-3.354248 39.469755z" fill="#272536" p-id="1036"></path></svg>