<?xml version="1.0" standalone="no"?><!DOCTYPE svg PUBLIC "-//W3C//DTD SVG 1.1//EN" "http://www.w3.org/Graphics/SVG/1.1/DTD/svg11.dtd"><svg t="1513581967332" class="icon" style="" viewBox="0 0 1121 1024" version="1.1" xmlns="http://www.w3.org/2000/svg" p-id="1867" xmlns:xlink="http://www.w3.org/1999/xlink" width="218.9453125" height="200"><defs><style type="text/css"></style></defs><path d="M965.25288 13.74415 155.685948 13.74415c-85.992161 0-155.685948 69.693788-155.685948 155.685948l0 42.692006 1120.938829 0 0-42.692006C1120.938829 83.559568 1051.245041 13.74415 965.25288 13.74415z" p-id="1868"></path><path d="M0 854.448272c0 85.992161 69.693788 155.685948 155.685948 155.685948l809.566932 0c85.992161 0 155.685948-69.693788 155.685948-155.685948L1120.938829 299.81708 0 299.81708 0 854.448272zM930.466801 829.757453l2.067704 0c21.893337 0 39.651265 17.757928 39.651265 39.651265 0 21.893337-17.757928 39.651265-39.651265 39.651265L930.466801 909.059983c-21.893337 0-39.651265-17.757928-39.651265-39.651265C890.815536 847.515382 908.573465 829.757453 930.466801 829.757453zM815.526785 829.757453l2.067704 0c21.893337 0 39.651265 17.757928 39.651265 39.651265 0 21.893337-17.757928 39.651265-39.651265 39.651265l-2.067704 0c-21.893337 0-39.651265-17.757928-39.651265-39.651265C775.87552 847.515382 793.633448 829.757453 815.526785 829.757453zM700.465138 829.757453l2.067704 0c21.893337 0 39.651265 17.757928 39.651265 39.651265 0 21.893337-17.757928 39.651265-39.651265 39.651265l-2.067704 0c-21.893337 0-39.651265-17.757928-39.651265-39.651265C660.813873 847.515382 678.571802 829.757453 700.465138 829.757453z" p-id="1869"></path></svg>