<?xml version="1.0" standalone="no"?><!DOCTYPE svg PUBLIC "-//W3C//DTD SVG 1.1//EN" "http://www.w3.org/Graphics/SVG/1.1/DTD/svg11.dtd"><svg t="1513567446479" class="icon" style="" viewBox="0 0 1024 1024" version="1.1" xmlns="http://www.w3.org/2000/svg" p-id="7260" xmlns:xlink="http://www.w3.org/1999/xlink" width="200" height="200"><defs><style type="text/css"></style></defs><path d="M930.475953 444.741153l-0.098237-0.10233a92.351338 92.351338 0 0 0-21.159926-15.575744V280.124955c0-15.053857-12.401448-27.26497-27.684526-27.26497h-20.514219v-72.123644l0.001023-0.036839c0-15.055904-12.402471-27.265994-27.683502-27.265994H192.087876c-31.833009 0-60.875462 12.57234-83.240842 33.390481-5.950526 5.300726-11.214413 11.106965-15.652492 17.35118-17.904789 23.683399-28.688389 53.922097-28.688389 86.694501v442.651563l0.002046 0.066515c0.016373 37.214577 13.932314 71.161736 36.395932 95.939049 23.210631 25.585725 55.44887 41.427528 91.184769 41.427528h689.445388c15.283078 0 27.684526-12.208043 27.684526-27.260877V657.596006a92.00853 92.00853 0 0 0 21.258163-15.626909c16.655332-16.381086 26.940582-39.017642 26.940582-64.011896v-69.312622c-0.001023-24.926716-10.304693-47.515177-26.941606-63.903426zM142.009318 231.070726c0.49835-0.549515 1.016143-1.075495 1.528819-1.608637 3.90903-3.948939 8.691963-7.520277 14.187117-10.5728 12.373819-6.866385 27.972075-10.933003 45.086871-10.933003h602.834798v44.904722H200.350051c-17.380856 0-32.990369-3.701299-45.086871-9.927093-5.878894-3.021823-10.825556-6.548136-14.544251-10.367115 0.428765-0.499373 0.849344-1.010003 1.290389-1.496074z m711.818954 585.365938H192.087876c-19.402909 0-37.139875-8.848529-50.075488-23.113417-13.661138-15.065114-22.113647-36.20048-22.113647-59.800991l-0.002047-0.072655V290.870694c0-1.805112 0.066515-3.589758 0.163729-5.363148a122.599246 122.599246 0 0 0 9.673314 5.561669c19.880793 10.227945 44.400233 16.322757 70.616314 16.322757h653.478221V418.125983H540.694529c-25.321712 0-48.275493 10.143011-64.913429 26.51284l-0.106423 0.10233c-16.627702 16.388249-26.931373 38.977733-26.931373 63.904449v69.312622c0 24.919553 10.302647 47.527456 26.931373 63.905472l0.106423 0.106424c16.637935 16.375969 39.591717 26.510794 64.913429 26.510794h313.133743v147.95575z m48.198746-238.477416c0 9.945513-4.084015 18.956747-10.70583 25.463951-6.600325 6.499018-15.760962 10.540054-25.854854 10.540054H540.694529c-10.114358 0-19.263739-3.992941-25.867134-10.437723l-0.103354-0.101308c-6.545066-6.499018-10.599406-15.496949-10.599406-25.463951v-69.313645c0-9.945513 4.054339-18.961864 10.599406-25.452695l0.103354-0.102331c6.603395-6.452969 15.752776-10.443863 25.867134-10.443863H865.465311c10.112312 0 19.252483 3.990894 25.854854 10.443863l0.11461 0.102331a35.742039 35.742039 0 0 1 10.591219 25.452695v69.312622z m-319.595922-80.875982c-11.275811 0-21.503756 4.508687-28.886911 11.778254-7.374968 7.269567-11.962449 17.328667-11.962449 28.430516 0 11.110035 4.587482 21.157879 11.962449 28.429493 7.382131 7.269567 17.612123 11.778254 28.886911 11.776208 11.267625 0 21.494547-4.50664 28.879747-11.776208 7.382131-7.271614 11.964496-17.337877 11.964496-28.429493 0-11.102872-4.580319-21.160949-11.964496-28.430516-7.384178-7.268544-17.600867-11.778254-28.879747-11.778254z m9.293667 49.357127a13.218046 13.218046 0 0 1-9.292644 3.79442c-3.623527 0-6.924713-1.456165-9.30083-3.79442s-3.854794-5.577019-3.854794-9.147334c0-3.560082 1.478677-6.808056 3.854794-9.147334 2.376117-2.339278 5.675256-3.795443 9.30083-3.795442s6.916527 1.457188 9.292644 3.795442c2.375094 2.340301 3.853771 5.587252 3.853771 9.147334 0 3.568269-1.478677 6.808056-3.853771 9.147334zM289.400203 730.771609c-19.414165 0-37.139875-8.838296-50.077536-23.114441-13.671371-15.068184-22.122857-36.199457-22.122856-59.799967 0-15.055904-12.403494-27.26497-27.696806-27.264971s-27.695782 12.209066-27.695782 27.264971c0 37.239136 13.930267 71.208808 36.406164 96.006587 23.203468 25.593911 55.438637 41.427528 91.187839 41.427528 15.292288 0 27.694759-12.208043 27.694759-27.254737-0.001023-15.053857-12.402471-27.26497-27.695782-27.26497z m-99.898221-136.469138c15.293311 0 27.696806-12.21009 27.696805-27.263947v-57.979506c0-15.055904-12.403494-27.267017-27.696805-27.267017s-27.695782 12.21009-27.695783 27.267017v57.979506c-0.001023 15.053857 12.402471 27.263947 27.695783 27.263947z" p-id="7261"></path></svg>