<?xml version="1.0" standalone="no"?><!DOCTYPE svg PUBLIC "-//W3C//DTD SVG 1.1//EN" "http://www.w3.org/Graphics/SVG/1.1/DTD/svg11.dtd"><svg t="1514361765099" class="icon" style="" viewBox="0 0 1575 1024" version="1.1" xmlns="http://www.w3.org/2000/svg" p-id="1858" xmlns:xlink="http://www.w3.org/1999/xlink" width="307.6171875" height="200"><defs><style type="text/css"></style></defs><path d="M457.786 650.299l69.158-11.422c7.2-10.142 47.040-100.865 44.722-163.066-2.354-62.236-42.125-219.799-195.293-221.529-153.202-1.731-202.353 141.986-202.353 218.622 0 76.635 35.998 161.648 44.652 167.359l60.504 10.073c0 61.682-126.341 80.963-165.663 114.814-39.287 33.818-36.484 132.329-12.876 144.929 52.994 28.384 264.278 32.468 264.278 32.468v-129.629c1.419-21.53 97.784-91.381 106.369-95.603-28.73-21.46-14.885-55.521-13.464-67.012zM1432.412 780.239c23.018 14.364 51.159 149.878 24.922 149.878h-225.856c0-21.564 1.385-94.219 0-117.203 0-20.076-128.348-113.88-128.348-113.88v-67.428c-13.44-11.991-23.248-27.79-27.738-45.699-6.448-5.47-14.445-32.032-15.9-60.322-9.599 15.542-16.764 6.957-21.126-3.045-5.781-11.492-7.268-22.984-8.618-35.86 0-11.492 4.257-22.984 14.399-31.637-8.654-35.825-28.626-119.176 1.454-179.37 30.080-60.194 107.995-73.139 146.867-74.593 46.002 3.114 68.535 19.592 80.65 31.603 17.306 2.838 36.034 10.038 48.979 21.53 20.18 18.588 30.253 45.863 33.126 71.685 4.327 43.094-4.327 87.574-17.272 129.144 10.038 8.654 14.399 21.564 14.399 34.475-1.454 14.365-4.327 28.73-12.945 41.641-5.336 7.228-13.403 12.175-22.648 13.317-1.981 29.868-12.614 56.996-28.13 80.632 4.705-9.249-1.041-0.63-9.728 6.534 0 24.368-1.385 50.19 1.454 74.593 7.235 18.692 23.087 31.603 38.905 41.675 48.979 27.241 67.047 0.761 113.119 32.33zM942.313 597.27l227.206 193.388c14.607 12.461 26.306 37.729 26.514 56.836l0.796 79.958c0.003 0.155 0.005 0.337 0.005 0.519 0 18.792-15.234 34.025-34.025 34.025-0.002 0-0.003 0-0.005 0h-281.481l-49.602-212.495 38.455-57.494-72.066-27.968-72.171 27.968 38.455 57.494-28.764 212.495h-302.352c-0.117 0.002-0.254 0.003-0.392 0.003-18.62 0-33.714-15.095-33.714-33.714 0-0.305 0.005-0.609 0.012-0.912l1.592-79.879c0.415-19.176 12.599-44.722 27.241-57.251l225.752-192.938 24.126-5.296c-4.569-24.576-21.253-26.514-27.345-43.891-3.046-27.484-6.057-53.479-9.104-80.996 0 1.454-18.206-2.873-21.253-4.292-27.345-15.923-27.345-81.066-30.356-108.549-1.523-13.049 16.685-23.192 12.114-46.279-30.322-134.579 12.185-196.78 80.443-217.029 47.109-18.865 135.098-52.129 217.064-4.361l19.73 17.376 33.367 5.746c16.718 8.688 27.31 39.114 27.31 39.114 9.138 33.23 9.138 36.102 9.138 69.401-1.523 13.049-9.104 73.797-7.581 92.627 3.046 14.435 6.092 15.923 13.638 28.937 10.661 21.703 6.057 52.059 3.046 73.728-3.046 11.631-7.615 28.972-15.161 39.114-7.615 11.527-24.334 11.527-31.844 23.156-10.731 18.83-4.604 44.825-12.218 63.621-7.545 23.123-19.106 23.606-20.63 52.613 9.138 1.35 24.056 5.227 24.056 5.227z" p-id="1859"></path></svg>