<?xml version="1.0" standalone="no"?><!DOCTYPE svg PUBLIC "-//W3C//DTD SVG 1.1//EN" "http://www.w3.org/Graphics/SVG/1.1/DTD/svg11.dtd"><svg t="1514535130909" class="icon" style="" viewBox="0 0 1024 1024" version="1.1" xmlns="http://www.w3.org/2000/svg" p-id="17719" xmlns:xlink="http://www.w3.org/1999/xlink" width="200" height="200"><defs><style type="text/css"></style></defs><path d="M937.856172 21.678266c35.49716 0 64.394848 28.897688 64.394848 64.394848l0 314.574834c0 35.49716-28.897688 64.394848-64.394848 64.394848l-301.675866 0c-35.49716 0-64.394848-28.897688-64.394848-64.394848l0-314.574834c0-35.49716 28.897688-64.394848 64.394848-64.394848L937.856172 21.678266M386.600272 21.678266c35.49716 0 64.394848 28.897688 64.394848 64.394848l0 314.574834c0 35.49716-28.897688 64.394848-64.394848 64.394848L84.924406 465.042797c-35.49716 0-64.394848-28.897688-64.394848-64.394848l0-314.574834c0-35.49716 28.897688-64.394848 64.394848-64.394848L386.600272 21.678266M386.600272 560.135189c35.49716 0 64.394848 28.897688 64.394848 64.394848l0 314.574834c0 35.49716-28.897688 64.394848-64.394848 64.394848L84.924406 1003.49972c-35.49716 0-64.394848-28.897688-64.394848-64.394848l0-314.474842c0-35.49716 28.897688-64.394848 64.394848-64.394848L386.600272 560.235181M937.856172 560.235181c35.49716 0 64.394848 28.897688 64.394848 64.394848l0 314.474842c0 35.49716-28.897688 64.394848-64.394848 64.394848l-301.675866 0c-35.49716 0-64.394848-28.897688-64.394848-64.394848l0-314.474842c0-35.49716 28.897688-64.394848 64.394848-64.394848L937.856172 560.235181M937.856172 1.179906l-301.675866 0c-46.696264 0-84.893209 38.196944-84.893209 84.893209l0 314.574834c0 46.696264 38.196944 84.893209 84.893209 84.893209L937.856172 485.541157c46.696264 0 84.893209-38.196944 84.893209-84.893209l0-314.574834C1022.74938 39.37685 984.552436 1.179906 937.856172 1.179906L937.856172 1.179906zM386.600272 1.179906 84.924406 1.179906c-46.696264 0-84.893209 38.196944-84.893209 84.893209l0 314.574834c0 46.696264 38.196944 84.893209 84.893209 84.893209l301.675866 0c46.696264 0 84.893209-38.196944 84.893209-84.893209l0-314.574834C471.393489 39.37685 433.196544 1.179906 386.600272 1.179906L386.600272 1.179906zM386.600272 539.636829 84.924406 539.636829c-46.696264 0-84.893209 38.196944-84.893209 84.893209l0 314.474842c0 46.696264 38.196944 84.893209 84.893209 84.893209l301.675866 0c46.696264 0 84.893209-38.196944 84.893209-84.893209l0-314.574834C471.393489 577.833773 433.196544 539.636829 386.600272 539.636829L386.600272 539.636829zM937.856172 539.736821l-301.675866 0c-46.696264 0-84.893209 38.196944-84.893209 84.893209l0 314.474842c0 46.696264 38.196944 84.893209 84.893209 84.893209L937.856172 1023.99808c46.696264 0 84.893209-38.196944 84.893209-84.893209l0-314.474842C1022.74938 577.933765 984.652428 539.736821 937.856172 539.736821L937.856172 539.736821z" p-id="17720"></path></svg>