<?xml version="1.0" standalone="no"?><!DOCTYPE svg PUBLIC "-//W3C//DTD SVG 1.1//EN" "http://www.w3.org/Graphics/SVG/1.1/DTD/svg11.dtd"><svg t="1514534368366" class="icon" style="" viewBox="0 0 1092 1024" version="1.1" xmlns="http://www.w3.org/2000/svg" p-id="1869" xmlns:xlink="http://www.w3.org/1999/xlink" width="213.28125" height="200"><defs><style type="text/css"></style></defs><path d="M1059.293867 402.090667c-6.212267-33.041067-26.4192-54.0672-51.268267-53.521067h-4.573867a132.573867 132.573867 0 0 1-132.3008-132.3008c0-23.3472 11.0592-49.3568 11.4688-50.517333a67.584 67.584 0 0 0-22.869333-81.851734l-1.570133-1.024-132.642134-73.728L723.626667 8.192a74.9568 74.9568 0 0 0-81.032534 16.110933c-15.837867 16.247467-65.194667 58.368-104.448 58.368-39.5264 0-89.224533-42.939733-105.0624-59.528533A74.9568 74.9568 0 0 0 352.0512 6.485333l-1.6384 0.682667L212.992 82.602667l-1.8432 1.2288a67.584 67.584 0 0 0-22.9376 81.92c0.136533 0.2048 11.605333 26.965333 11.605333 50.517333 0 72.9088-59.392 132.3008-132.369066 132.3008H63.010133c-24.849067-0.477867-45.056 20.48-51.268266 53.589333-0.477867 2.389333-11.127467 59.528533-11.127467 104.8576 0 43.8272 10.0352 98.577067 11.127467 104.789334 6.144 32.5632 25.941333 53.589333 50.449066 53.589333h5.461334c72.9088 0 132.369067 59.392 132.369066 132.3008 0 23.893333-11.400533 50.244267-11.4688 50.517333a67.720533 67.720533 0 0 0 22.664534 81.851734l1.570133 1.092266 130.184533 72.772267 1.774934 0.8192a73.591467 73.591467 0 0 0 81.237333-17.066667c18.705067-20.206933 69.290667-62.0544 106.837333-62.0544 40.618667 0 92.501333 46.830933 107.451734 63.214934a73.591467 73.591467 0 0 0 81.237333 17.6128l1.6384-0.682667 134.826667-74.5472 1.774933-1.160533a67.720533 67.720533 0 0 0 22.9376-81.783467c-0.068267-0.2048-11.605333-26.760533-11.605333-50.517333 0-72.977067 59.392-132.437333 132.369066-132.437334h5.393067c24.507733 0 44.2368-20.8896 50.449067-53.521066 0.136533-0.546133 11.195733-58.7776 11.195733-104.789334-0.068267-45.056-10.8544-102.468267-11.195733-104.8576z m-62.0544 104.925866c0 30.9248-6.485333 71.0656-8.942934 85.8112a203.9808 203.9808 0 0 0-133.666133 63.351467 204.526933 204.526933 0 0 0-56.797867 141.653333c0 31.675733 10.6496 62.2592 15.5648 74.615467l-120.0128 66.218667a367.069867 367.069867 0 0 0-46.762666-41.3696c-40.072533-29.764267-78.4384-44.8512-113.937067-44.8512-35.157333 0-73.250133 14.813867-113.117867 44.032-24.3712 17.749333-41.642667 35.498667-46.421333 40.618666L257.365333 872.448c4.9152-12.288 15.5648-42.939733 15.5648-74.752a204.8 204.8 0 0 0-56.797866-141.653333 204.8 204.8 0 0 0-133.666134-63.351467c-2.4576-14.609067-8.942933-54.749867-8.942933-85.8112 0-30.856533 6.485333-71.133867 8.942933-85.8112a203.9808 203.9808 0 0 0 133.666134-63.419733c36.590933-38.365867 56.797867-88.6784 56.797866-141.653334 0-31.675733-10.6496-62.2592-15.5648-74.5472l122.811734-67.242666c0.2048 0 0.546133 0.136533 0.682666 0.273066 3.959467 4.096 21.640533 21.640533 46.148267 39.185067 39.3216 27.989333 76.731733 42.1888 111.2064 42.1888 34.065067 0 71.202133-13.9264 110.318933-41.301333 24.234667-17.066667 41.847467-34.474667 45.8752-38.434134l0.887467-0.2048 118.1696 65.7408c-4.846933 12.288-15.496533 43.008-15.496533 74.752a204.8 204.8 0 0 0 56.797866 141.653334c35.498667 37.137067 82.807467 59.5968 133.597867 63.351466 2.525867 14.472533 8.874667 54.749867 8.874667 85.6064z" p-id="1870"></path><path d="M533.162667 317.508267a188.893867 188.893867 0 0 0-188.757334 188.757333 188.893867 188.893867 0 0 0 188.757334 188.757333 188.893867 188.893867 0 0 0 188.757333-188.757333A188.893867 188.893867 0 0 0 533.162667 317.508267z m0 304.3328c-63.6928 0-115.575467-51.882667-115.575467-115.575467s51.882667-115.575467 115.575467-115.575467 115.575467 51.882667 115.575466 115.575467S596.855467 621.909333 533.162667 621.909333z" p-id="1871"></path></svg>