<?xml version="1.0" standalone="no"?><!DOCTYPE svg PUBLIC "-//W3C//DTD SVG 1.1//EN" "http://www.w3.org/Graphics/SVG/1.1/DTD/svg11.dtd"><svg t="1511766171719" class="icon" style="" viewBox="0 0 1024 1024" version="1.1" xmlns="http://www.w3.org/2000/svg" p-id="1852" xmlns:xlink="http://www.w3.org/1999/xlink" width="200" height="200"><defs><style type="text/css"></style></defs><path d="M951.973017 748.240628C841.084348 747.713494 730.19007 747.9808 619.29953 747.9808L601.726049 747.9808C603.324488 770.53544 605.364134 792.136751 606.261503 813.788533 607.416865 841.674337 620.505371 861.277397 644.878294 874.205285 654.762443 879.446724 664.190429 885.564853 673.695065 891.488577 676.547952 893.264385 679.561617 895.303762 681.472266 897.963736 686.819091 905.410918 683.324959 912.233762 674.076447 912.405735 659.75219 912.669301 645.420455 912.512283 631.092459 912.510414 538.891505 912.504806 446.688681 912.502937 354.485857 912.450597 349.069859 912.446859 342.236766 914.140419 340.408377 906.758662 338.639811 899.625519 343.571603 895.271984 349.22503 891.886732 361.507772 884.534883 373.822295 877.233506 386.041473 869.778848 404.906793 858.273476 415.247105 841.474326 416.910977 819.403827 418.666456 796.131386 420.40137 772.857076 422.26341 747.986408L410.184446 747.986408C296.489628 747.984538 182.792941 747.990146 69.098123 747.9808 44.254081 747.978931 33.343566 737.000694 33.341697 712.019738 33.337958 536.046439 33.334219 320.114033 33.347305 144.140734 33.349175 121.630956 44.885979 109.869495 67.037913 109.867625 362.02189 109.847063 657.007736 109.953611 951.989842 109.596581 970.327958 109.576018 983.246336 115.262345 990.533723 132.287678L990.533723 725.55327C983.210815 742.537479 970.314871 748.326615 951.973017 748.240628ZM945.005318 175.45275 78.713061 175.45275 78.713061 677.777555 945.005318 677.777555 945.005318 175.45275ZM138.032909 530.792078C138.032909 519.608222 138.14695 508.420627 137.995519 497.238639 137.883348 488.847476 141.583126 484.378046 150.173568 484.376176 162.912473 484.374307 175.653247 484.439732 188.392151 484.34253 197.016244 484.277105 200.932887 488.821306 200.957191 497.010588 201.026363 520.00077 201.013277 542.98908 200.908583 565.979261 200.871193 574.241445 196.763859 578.574419 188.197721 578.49217 175.771027 578.368799 163.338724 578.589372 150.912028 578.419268 141.670994 578.290289 138.145081 574.64147 138.034779 565.276415 137.898304 553.784128 138.001127 542.286235 138.001127 530.792078L138.032909 530.792078ZM319.428631 514.903264C319.43424 498.730319 319.351981 482.553636 319.464151 466.382561 319.535193 456.372608 322.879764 453.093903 332.941517 453.007917 345.072828 452.905108 357.206008 452.865853 369.335449 453.021003 378.709219 453.140636 382.379086 456.565143 382.422085 465.993752 382.573515 499.272408 382.498735 532.552933 382.403389 565.831589 382.380955 574.060125 378.288578 578.518341 369.733657 578.471608 357.290136 578.404315 344.846616 578.583765 332.406834 578.41553 323.137757 578.28842 319.525846 574.615299 319.458543 565.28763 319.333285 548.494088 319.423022 531.696807 319.428631 514.903264ZM291.46623 499.90983C291.468099 521.378423 291.535402 542.847016 291.440057 564.315609 291.393319 575.136827 288.271221 578.316459 277.706568 578.428615 265.883728 578.555726 254.057148 578.540772 242.232439 578.426746 232.514677 578.335152 228.930809 575.209728 228.895287 565.782988 228.73077 521.913035 228.712075 478.039344 228.850419 434.16939 228.880332 424.731434 232.481026 421.555541 242.180092 421.448993 254.315142 421.314404 266.452062 421.316274 278.587111 421.452731 287.919752 421.555541 291.376494 425.037995 291.42697 434.569415 291.541011 456.348307 291.462491 478.127199 291.46623 499.90983ZM851.1891 328.564849C811.917976 357.983458 773.101146 387.05812 733.188778 416.95713L733.188778 265.417091C768.919032 261.962675 830.29909 294.486145 851.1891 328.564849ZM410.291009 485.019206C410.291009 458.557787 410.266705 432.098237 410.302226 405.640556 410.319052 392.776223 413.300935 389.875113 426.363267 389.847074 437.260695 389.820905 448.158123 389.768565 459.053681 389.873243 469.141608 389.972315 472.833908 393.37626 472.850735 403.096476 472.940471 457.262382 472.957297 511.428286 472.876907 565.590453 472.863821 574.869521 469.192085 578.337021 459.717361 578.451046 447.578572 578.598719 435.434174 578.593112 423.293516 578.447308 413.968354 578.337021 410.451788 574.888214 410.40131 565.332493 410.257358 538.560775 410.350834 511.789056 410.350834 485.019206L410.291009 485.019206ZM350.200919 385.915994C379.395333 352.755103 408.288754 319.934419 438.866612 285.201469 425.359335 285.201469 414.314214 285.029496 403.274703 285.263155 395.817191 285.418304 390.088983 283.405098 389.384174 275.055059 388.812102 268.290162 394.293532 264.422638 403.781342 264.405814 422.15124 264.374036 440.523006 264.355343 458.894773 264.448807 469.676291 264.503016 472.82643 267.596662 472.882516 278.285161 472.985339 297.275099 472.811474 316.266907 472.98347 335.258713 473.050772 342.627385 470.192278 347.951073 462.637551 347.967896 455.157603 347.986588 451.979421 342.761973 452.078505 335.382085 452.216849 325.203897 452.114026 315.020101 452.114026 302.398775 447.582311 307.31683 444.501344 310.537587 441.55685 313.877977 415.207845 343.773249 388.913055 373.717123 362.528529 403.580618 354.216646 412.990535 350.653342 413.269056 340.636458 405.300349 314.087414 384.183178 287.620628 362.965068 260.54625 341.326371 257.992486 343.567629 255.45181 345.666822 253.055086 347.919295 222.660441 376.500469 192.28823 405.105944 161.902933 433.694595 159.637074 435.825566 157.468432 438.117294 154.957668 439.919272 149.958573 443.506406 144.052761 443.669032 141.067139 438.442547 139.113492 435.025517 140.063208 429.430785 140.997967 425.088466 141.489651 422.806084 144.714571 421.090092 146.754217 419.16848 180.749557 387.145976 214.746765 355.123471 248.75893 323.119658 257.805535 314.608862 260.542511 314.489229 270.265881 322.250447 294.10973 341.27777 317.918059 360.349956 341.750691 379.390365 344.405409 381.511989 347.129299 383.547626 350.200919 385.915994ZM818.926805 558.956405C792.833923 518.518436 766.755998 478.101029 740.330342 437.147141 781.422377 406.380788 821.931122 376.053713 862.467909 345.702338 903.608552 407.373371 890.860299 508.701018 818.926805 558.956405ZM711.962256 276.986017C711.962256 307.281314 711.965996 336.81021 711.960386 366.337236 711.958517 385.015005 711.683697 403.698382 712.117426 422.363066 712.225858 427.015685 713.616781 432.24591 716.093894 436.145212 739.281542 472.639015 762.831877 508.897292 786.27191 545.230338 789.113579 549.632475 791.91599 554.060781 794.725877 558.464786 753.101029 584.896297 685.497341 587.915172 633.130235 550.084839 579.918106 511.646991 557.330574 443.887738 577.057742 381.940052 596.143664 322.014918 652.55641 277.741203 711.962256 276.986017Z" p-id="1853"></path></svg>