<?xml version="1.0" standalone="no"?><!DOCTYPE svg PUBLIC "-//W3C//DTD SVG 1.1//EN" "http://www.w3.org/Graphics/SVG/1.1/DTD/svg11.dtd"><svg t="1514362253649" class="icon" style="" viewBox="0 0 1030 1024" version="1.1" xmlns="http://www.w3.org/2000/svg" p-id="3343" xmlns:xlink="http://www.w3.org/1999/xlink" width="201.171875" height="200"><defs><style type="text/css"></style></defs><path d="M877.714 549.037v248.428c-44.843 15.473-77.056 58.05-77.056 108.152 0 63.17 51.21 114.38 114.38 114.38 63.17 0 114.38-51.21 114.38-114.38 0-57.444-42.346-104.997-97.524-113.147V494.857h-400.66v-99.374h144.75c0-85.482-62.514-156.362-144.32-169.418 50.014-12.223 87.13-57.334 87.13-111.113 0-63.17-51.209-114.38-114.38-114.38-63.17 0-114.379 51.21-114.379 114.38 0 53.78 37.116 98.89 87.13 111.113-81.805 13.056-144.32 83.936-144.32 169.418h144.209v99.374H86.688v3.598H81.27v297.648C34.244 810.3 0 853.96 0 905.617c0 63.17 51.21 114.38 114.38 114.38 63.17 0 114.38-51.21 114.38-114.38 0-55.972-40.205-102.554-93.31-112.443V549.037h341.604V797.58c-44.671 15.568-76.725 58.06-76.725 108.037 0 63.17 51.21 114.38 114.38 114.38 63.17 0 114.38-51.21 114.38-114.38 0-57.558-42.515-105.187-97.855-113.195V549.037h346.48z" fill="" p-id="3344"></path></svg>