<?xml version="1.0" standalone="no"?><!DOCTYPE svg PUBLIC "-//W3C//DTD SVG 1.1//EN" "http://www.w3.org/Graphics/SVG/1.1/DTD/svg11.dtd"><svg t="1511328622197" class="icon" style="" viewBox="0 0 1024 1024" version="1.1" xmlns="http://www.w3.org/2000/svg" p-id="2191" xmlns:xlink="http://www.w3.org/1999/xlink" width="200" height="200"><defs><style type="text/css"></style></defs><path d="M 838.4 624.64 H 492.16 a 32 32 0 0 0 -35.2 35.2 a 34.56 34.56 0 0 0 35.2 35.2 h 346.24 a 32 32 0 0 0 35.2 -35.2 a 34.56 34.56 0 0 0 -35.2 -35.2 Z M 838.4 323.84 H 492.16 a 32 32 0 0 0 -35.2 35.2 a 32 32 0 0 0 35.2 35.2 h 346.24 a 32 32 0 0 0 35.2 -35.2 a 34.56 34.56 0 0 0 -35.2 -35.2 Z" p-id="2192"></path><path d="M 868.48 17.28 H 155.52 A 156.16 156.16 0 0 0 0 173.44 v 677.12 a 156.16 156.16 0 0 0 155.52 155.52 h 712.96 A 156.16 156.16 0 0 0 1024 850.56 V 173.44 A 152.96 152.96 0 0 0 868.48 17.28 Z m 80 838.4 a 79.36 79.36 0 0 1 -80 80 H 155.52 a 79.36 79.36 0 0 1 -80 -80 V 173.44 a 79.36 79.36 0 0 1 80 -80.64 h 712.96 a 79.36 79.36 0 0 1 80 80 Z" p-id="2193"></path><path d="M 286.08 549.76 a 115.2 115.2 0 0 0 0 231.04 a 115.2 115.2 0 1 0 0 -231.04 Z m 0 150.4 a 37.12 37.12 0 0 1 -40.32 -40.32 a 37.12 37.12 0 0 1 40.32 -40.32 a 37.12 37.12 0 0 1 40.32 40.32 a 39.68 39.68 0 0 1 -40.32 40.32 Z M 376.32 263.68 L 266.24 373.76 l -49.92 -49.92 a 33.28 33.28 0 0 0 -49.92 0 a 33.28 33.28 0 0 0 0 49.92 L 245.76 454.4 a 42.24 42.24 0 0 0 30.08 10.24 c 15.36 0 15.36 -5.12 30.08 -10.24 L 441.6 320 a 33.28 33.28 0 0 0 0 -49.92 C 411.52 256 391.68 256 376.32 263.68 Z" p-id="2194"></path></svg>