<?xml version="1.0" standalone="no"?><!DOCTYPE svg PUBLIC "-//W3C//DTD SVG 1.1//EN" "http://www.w3.org/Graphics/SVG/1.1/DTD/svg11.dtd"><svg t="1511767775543" class="icon" style="" viewBox="0 0 1024 1024" version="1.1" xmlns="http://www.w3.org/2000/svg" p-id="2529" xmlns:xlink="http://www.w3.org/1999/xlink" width="200" height="200"><defs><style type="text/css"></style></defs><path d="M162.369529 357.309872l40.932248 0 0 104.377232-40.932248 0 0-104.377232Z" p-id="2530"></path><path d="M162.369529 598.810135l40.932248 0 0 118.702496-40.932248 0 0-118.702496Z" p-id="2531"></path><path d="M868.165304 64.736397 249.508145 64.736397c-25.374924 0-48.707328 9.992585-65.700351 28.136827-17.124006 18.284435-26.554796 43.906999-26.554796 72.14718l0 51.073212 40.932248 0 0-51.073212c0-34.944883 21.104667-59.35176 51.322899-59.35176l116.499317 0 0 822.738184L249.508145 928.406828c-28.299533 0-51.322899-22.034852-51.322899-49.118698l0-62.513776 106.780978 0 0-61.398372-243.546875 0 0 61.398372 95.833649 0 0 62.513776c0 49.653887 41.385573 90.050945 92.255147 90.050945l618.657158 0c50.869574 0 92.255147-40.397059 92.255147-90.050945l0-724.500788C960.420451 105.133456 919.034878 64.736397 868.165304 64.736397zM406.939711 928.406828l0-822.738184 461.225593 0c28.299533 0 51.322899 22.034852 51.322899 49.118698l0 724.500788c0 1.503237-0.081864 2.988054-0.221034 4.456498L766.133489 704.317097c27.333532-30.450523 43.988864-70.672596 43.988864-114.716718 0-94.794993-77.120448-171.915441-171.915441-171.915441s-171.915441 77.120448-171.915441 171.915441 77.120448 171.915441 171.915441 171.915441c36.036751 0 69.512167-11.154038 97.17418-30.178323L896.552841 920.18354c-8.136308 5.190209-17.896602 8.223289-28.387537 8.223289L406.939711 928.406828zM638.206912 720.583572c-72.223928 0-130.983193-58.759265-130.983193-130.983193 0-72.224951 58.759265-130.983193 130.983193-130.983193s130.983193 58.758242 130.983193 130.983193C769.190105 661.824307 710.43084 720.583572 638.206912 720.583572z" p-id="2532"></path><path d="M61.41935 254.979252l243.546875 0 0 61.398372-243.546875 0 0-61.398372Z" p-id="2533"></path><path d="M61.41935 510.805802l243.546875 0 0 61.398372-243.546875 0 0-61.398372Z" p-id="2534"></path></svg>