<?xml version="1.0" standalone="no"?><!DOCTYPE svg PUBLIC "-//W3C//DTD SVG 1.1//EN" "http://www.w3.org/Graphics/SVG/1.1/DTD/svg11.dtd"><svg t="1510214918929" class="icon" style="" viewBox="0 0 1024 1024" version="1.1" xmlns="http://www.w3.org/2000/svg" p-id="1808" xmlns:xlink="http://www.w3.org/1999/xlink" width="200" height="200"><defs><style type="text/css"></style></defs><path d="M917.331074 273.458115 813.77351 273.458115l0-44.910862c0-60.47228-49.022507-109.493763-109.493763-109.493763L312.384172 119.05349c-60.47228 0-109.493763 49.021483-109.493763 109.493763l0 44.910862-96.221482 0c-33.344432 0-60.375066 27.030633-60.375066 60.375066l0 95.436606 931.413302 0 0-95.436606C977.706139 300.488749 950.674483 273.458115 917.331074 273.458115zM248.660848 231.44321c0-36.734646 29.780257-66.514903 66.514903-66.514903l388.174833 0c36.734646 0 66.514903 29.780257 66.514903 66.514903l0 42.014906L248.660848 273.458115 248.660848 231.44321z" p-id="1809"></path><path d="M46.292837 835.193867c0 33.344432 27.030633 60.375066 60.375066 60.375066l810.66317 0c33.343409 0 60.375066-27.030633 60.375066-60.375066L977.706139 465.364867l-931.413302 0L46.292837 835.193867zM396.744511 647.998417l87.320765 0L484.065276 564.039213l58.214866 0 0 83.960227 87.320765 0 0 58.214866-87.320765 0 0 90.681302-58.214866 0 0-90.681302-87.320765 0L396.744511 647.998417z" p-id="1810"></path></svg>