<?xml version="1.0" standalone="no"?><!DOCTYPE svg PUBLIC "-//W3C//DTD SVG 1.1//EN" "http://www.w3.org/Graphics/SVG/1.1/DTD/svg11.dtd"><svg t="1514534588261" class="icon" style="" viewBox="0 0 1049 1024" version="1.1" xmlns="http://www.w3.org/2000/svg" p-id="4846" xmlns:xlink="http://www.w3.org/1999/xlink" width="204.8828125" height="200"><defs><style type="text/css"></style></defs><path d="M531.283628 558.306943c0-13.118114 0-26.236229 6.559057-32.795285l19.677172-19.677172h-6.559058s-6.559057 0-13.118114-6.559057c72.149628-45.9134 118.063028-131.181143 118.063029-223.007942C655.905714 125.409172 537.842685 7.346144 393.543428 7.346144S131.181143 125.409172 131.181143 276.267487c0 91.8268 45.9134 177.094543 118.063028 223.007942-32.795286 13.118114-52.472457 19.677171-72.149628 39.354343 0 0-157.417371 98.385857-170.535486 288.598514 0 0-6.559057 39.354343 6.559057 59.031514 0 0 13.118114 19.677171 39.354343 19.677172 0 0 39.354343 0 39.354343-45.9134 0 0 0-45.9134 19.677171-91.8268 0 0 13.118114-45.9134 45.9134-85.267743 0 0 39.354343-52.472457 104.944914-91.8268 0 0 72.149628-39.354343 163.976429-32.795286 0 0 52.472457 0 111.503971 32.795286 0-6.559057 0-19.677171-6.559057-32.795286zM393.543428 473.039201c-104.944914 0-190.212657-85.267743-190.212657-190.212657 0-104.944914 85.267743-190.212657 190.212657-190.212657s190.212657 85.267743 190.212657 190.212657C577.197028 381.212401 491.929285 473.039201 393.543428 473.039201zM708.378171 99.172944s78.708686 19.677171 111.503971 104.944914c0 0 32.795286 72.149628-6.559057 137.7402 0 0-26.236229 52.472457-72.149629 72.149628 0 0-19.677171 6.559057-32.795285 26.236229l6.559057 6.559057c19.677171 26.236229 52.472457 26.236229 72.149628 0 6.559057-6.559057 19.677171-13.118114 26.236229-13.118114 6.559057 0 19.677171 6.559057 26.236228 6.559057l13.118115-13.118114s52.472457-59.031514 59.031514-137.7402c0 0 19.677171-85.267743-45.9134-183.6536 0 0-32.795286-45.9134-78.708686-72.149628 0 0-85.267743-52.472457-137.7402-26.236229 0 0-26.236229 13.118114-19.677171 45.9134 6.559057 6.559057 6.559057 32.795286 78.708686 45.9134z" p-id="4847"></path><path d="M813.323085 1017.440943c-6.559057 0-19.677171-6.559057-19.677172-13.118114-19.677171-26.236229-52.472457-26.236229-72.149628 0-6.559057 6.559057-19.677171 13.118114-26.236229 13.118114-59.031514-13.118114-111.503971-45.9134-150.858314-91.8268-6.559057-6.559057-6.559057-19.677171-6.559057-32.795286 6.559057-13.118114 6.559057-26.236229 0-39.354343-6.559057-13.118114-19.677171-19.677171-32.795286-19.677171s-19.677171-6.559057-26.236228-19.677171c-13.118114-26.236229-19.677171-59.031514-19.677172-85.267743 0-32.795286 6.559057-59.031514 13.118115-91.8268 0-13.118114 13.118114-19.677171 26.236228-19.677171s26.236229-6.559057 32.795286-19.677172c6.559057-13.118114 6.559057-26.236229 0-39.354343 0-13.118114 0-26.236229 6.559057-32.795285 39.354343-45.9134 91.8268-78.708686 150.858314-91.8268 13.118114 0 19.677171 0 26.236229 13.118114 19.677171 26.236229 52.472457 26.236229 72.149628 0 6.559057-6.559057 19.677171-13.118114 26.236229-13.118114 59.031514 13.118114 111.503971 45.9134 150.858314 91.8268 6.559057 6.559057 6.559057 19.677171 6.559057 32.795285-6.559057 13.118114-6.559057 26.236229 0 39.354343 6.559057 13.118114 19.677171 19.677171 32.795286 19.677172s19.677171 6.559057 26.236228 19.677171c6.559057 26.236229 13.118114 59.031514 13.118115 91.8268 0 32.795286-6.559057 59.031514-13.118115 91.8268 0 13.118114-13.118114 19.677171-26.236228 19.677171s-26.236229 6.559057-32.795286 19.677172c-6.559057 13.118114-6.559057 26.236229 0 39.354342 6.559057 13.118114 0 19.677171-6.559057 32.795286-32.795286 39.354343-85.267743 72.149628-150.858314 85.267743 6.559057 0 0 0 0 0zM590.315142 899.377914c26.236229 26.236229 59.031514 45.9134 98.385857 59.031515 39.354343-32.795286 98.385857-32.795286 131.181143 0 39.354343-13.118114 72.149628-32.795286 98.385857-59.031515-6.559057-26.236229 0-52.472457 13.118114-72.149628 13.118114-19.677171 32.795286-39.354343 59.031514-45.9134 6.559057-19.677171 6.559057-39.354343 6.559058-59.031514 0-19.677171 0-39.354343-6.559058-59.031514-26.236229-6.559057-45.9134-26.236229-59.031514-45.9134-13.118114-13.118114-19.677171-39.354343-13.118114-65.590572-26.236229-26.236229-59.031514-45.9134-98.385857-59.031514-32.795286 32.795286-98.385857 32.795286-131.181143 0-39.354343 13.118114-72.149628 32.795286-98.385857 59.031514 6.559057 26.236229 0 52.472457-13.118114 72.149629-13.118114 19.677171-32.795286 39.354343-52.472457 45.9134-6.559057 19.677171-6.559057 39.354343-6.559057 59.031514 0 19.677171 0 39.354343 6.559057 59.031514 26.236229 6.559057 45.9134 26.236229 59.031514 45.9134 6.559057 19.677171 13.118114 45.9134 6.559057 65.590571z" p-id="4848"></path><path d="M754.291571 853.464514c-72.149628 0-124.622086-59.031514-124.622086-124.622085 0-72.149628 59.031514-124.622086 124.622086-124.622086s124.622086 59.031514 124.622085 124.622086c0 65.590571-52.472457 124.622086-124.622085 124.622085z m0-196.771714c-39.354343 0-72.149628 32.795286-72.149629 72.149629s32.795286 72.149628 72.149629 72.149628c39.354343 0 72.149628-32.795286 72.149628-72.149628s-32.795286-72.149628-72.149628-72.149629z" p-id="4849"></path></svg>