<?xml version="1.0" standalone="no"?><!DOCTYPE svg PUBLIC "-//W3C//DTD SVG 1.1//EN" "http://www.w3.org/Graphics/SVG/1.1/DTD/svg11.dtd"><svg t="1513566317710" class="icon" style="" viewBox="0 0 1024 1024" version="1.1" xmlns="http://www.w3.org/2000/svg" p-id="6597" xmlns:xlink="http://www.w3.org/1999/xlink" width="200" height="200"><defs><style type="text/css"></style></defs><path d="M734.031862 466.412732 465.369983 466.412732l0 89.553619L734.031862 555.966351 734.031862 466.412732zM375.811248 287.305495l-89.553619 0 0 89.553619 89.553619 0L375.811248 287.305495zM375.811248 645.520993l-89.553619 0L286.257629 735.074611l89.553619 0L375.811248 645.520993zM107.154485 63.415308l0 895.54028 805.981545 0L913.13603 63.415308 107.154485 63.415308zM823.586504 869.401969 196.708104 869.401969 196.708104 152.96995l626.8784 0L823.586504 869.401969zM375.811248 466.412732l-89.553619 0 0 89.553619 89.553619 0L375.811248 466.412732zM734.031862 287.305495 465.369983 287.305495l0 89.553619L734.031862 376.859114 734.031862 287.305495zM734.031862 645.520993 465.369983 645.520993 465.369983 735.074611 734.031862 735.074611 734.031862 645.520993z" p-id="6598"></path></svg>