<?xml version="1.0" standalone="no"?><!DOCTYPE svg PUBLIC "-//W3C//DTD SVG 1.1//EN" "http://www.w3.org/Graphics/SVG/1.1/DTD/svg11.dtd"><svg t="1511921257712" class="icon" style="" viewBox="0 0 1024 1024" version="1.1" xmlns="http://www.w3.org/2000/svg" p-id="6015" xmlns:xlink="http://www.w3.org/1999/xlink" width="200" height="200"><defs><style type="text/css"></style></defs><path d="M512 512m-512 0a512 512 0 1 0 1024 0 512 512 0 1 0-1024 0Z" fill="#A0C3FF" p-id="6016"></path><path d="M691.2 887.466667c-55.466667-25.6-123.733333-51.2-123.733333-51.2v-38.4c68.266667-25.6 119.466667-89.6 132.266666-166.4 12.8-4.266667 38.4-17.066667 46.933334-55.466667l8.533333-46.933333s4.266667-59.733333-42.666667-46.933334c4.266667-38.4 4.266667-81.066667 4.266667-115.2-4.266667-64-89.6-98.133333-89.6-98.133333l12.8-17.066667s-42.666667-12.8-59.733333-4.266666l12.8-29.866667s-85.333333 0-132.266667 38.4h-4.266667v-17.066667s-145.066667 21.333333-140.8 243.2c-46.933333-12.8-42.666667 46.933333-42.666666 46.933334l8.533333 46.933333c4.266667 38.4 29.866667 51.2 46.933333 55.466667 12.8 81.066667 64 145.066667 132.266667 166.4v38.4s-68.266667 29.866667-123.733333 51.2c-29.866667 12.8-59.733333 34.133333-81.066667 59.733333 68.266667 51.2 157.866667 76.8 256 76.8s187.733333-25.6 264.533333-72.533333c-21.333333-29.866667-51.2-46.933333-85.333333-64z" fill="#4374E0" p-id="6017"></path></svg>