<?xml version="1.0" standalone="no"?><!DOCTYPE svg PUBLIC "-//W3C//DTD SVG 1.1//EN" "http://www.w3.org/Graphics/SVG/1.1/DTD/svg11.dtd"><svg t="1514267818196" class="icon" style="" viewBox="0 0 1024 1024" version="1.1" xmlns="http://www.w3.org/2000/svg" p-id="1794" xmlns:xlink="http://www.w3.org/1999/xlink" width="200" height="200"><defs><style type="text/css"></style></defs><path d="M512 0C229.376 0 0 229.376 0 512s229.376 512 512 512 512-229.376 512-512S794.624 0 512 0zM450.56 204.8c0-33.792 27.648-61.44 61.44-61.44s61.44 27.648 61.44 61.44v365.568c0 33.792-27.648 61.44-61.44 61.44s-61.44-27.648-61.44-61.44V204.8z m62.464 651.264c-38.912 0-70.656-31.744-70.656-70.656s31.744-70.656 70.656-70.656c38.912 0 70.656 31.744 70.656 70.656s-31.232 70.656-70.656 70.656z" p-id="1795"></path></svg>