<?xml version="1.0" standalone="no"?><!DOCTYPE svg PUBLIC "-//W3C//DTD SVG 1.1//EN" "http://www.w3.org/Graphics/SVG/1.1/DTD/svg11.dtd"><svg t="1513560125090" class="icon" style="" viewBox="0 0 1026 1024" version="1.1" xmlns="http://www.w3.org/2000/svg" p-id="5916" xmlns:xlink="http://www.w3.org/1999/xlink" width="200.390625" height="200"><defs><style type="text/css"></style></defs><path d="M106.930878 1021.767583c-58.957266-0.010217-106.921028-47.973979-106.921028-106.910811V106.915919c0-58.957266 47.963762-106.921028 106.921028-106.921028h807.915311c58.952158 0 106.910811 47.963762 106.91081 106.921028v807.935745c0 58.941941-47.958653 106.910811-106.91081 106.91081H106.930878z m0-954.856373c-22.068745 0-40.020035 17.946181-40.020035 40.004709v807.935745c0 22.058528 17.95129 40.004709 40.020035 40.004709h807.915311c22.068745 0 40.025143-17.946181 40.025143-40.004709V106.915919c0-22.058528-17.956398-40.004709-40.025143-40.004709H106.930878z m73.450097 697.791249c-18.446815 0-33.460713-15.003682-33.460713-33.440279 0-18.482574 15.00879-33.511798 33.460713-33.511798h661.055984c18.436598 0 33.440279 15.029224 33.44028 33.511798a33.481147 33.481147 0 0 1-33.44028 33.440279H180.380975z m167.380195-279.660044l-142.532422 158.384115a33.36876 33.36876 0 0 1-47.279222 2.452083 33.052033 33.052033 0 0 1-10.978179-23.04447 33.297241 33.297241 0 0 1 8.510771-24.147907l187.993016-208.856154 198.281546 183.661003 224.539267-249.484101h-123.273355c-18.441706 0-33.440279-15.00879-33.44028-33.465822s14.998573-33.47093 33.44028-33.47093h198.373499c2.661532 0 4.791778 0.587478 5.695984 0.837795a26.717486 26.717486 0 0 1 6.232378 1.476358c2.784136 1.098329 4.776453 2.446974 6.08423 3.325637 1.394622 0.745842 2.932282 1.624505 4.58233 3.167274l1.466141 1.57342c0.321836 0.015326 1.33332 1.256692 3.448242 4.592547 0.858229 1.159631 2.063836 2.753485 3.03956 4.985901 0.945074 2.104704 1.33332 4.117456 1.512118 5.093181 0.628346 2.42654 1.251584 4.735585 1.302669 7.606565l0.107279 221.152327c0 18.467249-15.003682 33.476039-33.44028 33.476039-18.477466 0-33.501581-15.00879-33.501581-33.476039V377.722923l-261.851793 290.970277-198.312198-183.650785z" p-id="5917"></path></svg>