<?xml version="1.0" standalone="no"?><!DOCTYPE svg PUBLIC "-//W3C//DTD SVG 1.1//EN" "http://www.w3.org/Graphics/SVG/1.1/DTD/svg11.dtd"><svg t="1513582218695" class="icon" style="" viewBox="0 0 1024 1024" version="1.1" xmlns="http://www.w3.org/2000/svg" p-id="1338" xmlns:xlink="http://www.w3.org/1999/xlink" width="200" height="200"><defs><style type="text/css"></style></defs><path d="M889 784.911v144.1a29.96 29.96 0 0 1-45.692 25.536c-0.091-0.051-0.185-0.089-0.276-0.142l-69.174-40.156-69.98 40.691a29.611 29.611 0 0 1-15.227 4.013c-0.381 0.015-0.756 0.059-1.141 0.059a29.754 29.754 0 0 1-29.5-30v-144.9A184.638 184.638 0 0 1 589 640c0-102.173 82.827-185 185-185s185 82.827 185 185a184.656 184.656 0 0 1-70 144.911z m-171.986 92.851L753.07 856.8a29.847 29.847 0 0 1 35.106-3.755l40.817 23.694v-60.05a185.913 185.913 0 0 1-111.979-0.647v61.72zM774 515a125 125 0 1 0 125 125 125 125 0 0 0-125-125z m0 215a90 90 0 1 1 90-90 90 90 0 0 1-90 90z m0-120a30 30 0 1 0 30 30 30 30 0 0 0-30-30zM245.979 337h448.042a29.979 29.979 0 1 1 0 59.957H245.979a29.979 29.979 0 1 1 0-59.957z m0 290.043h181.226a29.979 29.979 0 0 1 29.979 29.978A29.979 29.979 0 0 1 427.205 687H245.979A29.979 29.979 0 0 1 216 657.021a29.979 29.979 0 0 1 29.979-29.978zM216 511.979A29.979 29.979 0 0 1 245.979 482h281.042A29.979 29.979 0 0 1 557 511.979v0.042A29.979 29.979 0 0 1 527.021 542H245.979A29.979 29.979 0 0 1 216 512.021v-0.042zM845 397a30 30 0 0 1-30-30V145a20 20 0 0 0-20-20H145a20 20 0 0 0-20 20v734a20 20 0 0 0 20 20h397a30 30 0 0 1 0 60H115a50 50 0 0 1-50-50V115a50 50 0 0 1 50-50h710a50 50 0 0 1 50 50v252a30 30 0 0 1-30 30z" p-id="1339"></path></svg>