<?xml version="1.0" standalone="no"?><!DOCTYPE svg PUBLIC "-//W3C//DTD SVG 1.1//EN" "http://www.w3.org/Graphics/SVG/1.1/DTD/svg11.dtd"><svg t="1512458632749" class="icon" style="" viewBox="0 0 1024 1024" version="1.1" xmlns="http://www.w3.org/2000/svg" p-id="1865" xmlns:xlink="http://www.w3.org/1999/xlink" width="200" height="200"><defs><style type="text/css"></style></defs><path d="M95.4092 48.0676c-3.9168 0.0225-7.8264 1.535-10.8052 4.5322s-4.4667 6.9161-4.4646 10.8339l0.1382 318.4957c0.001 2.006 1.1889 3.9086 3.157 4.7258 1.9681 0.8172 4.1544 0.3154 5.5757-1.0998l107.6572-107.1892 144.341 143.7297c2.7771 2.7658 6.6079 4.4759 10.837 4.4759 4.2301 0 8.0599-1.7091 10.838-4.4759l97.9886-97.5647c2.7935-2.7812 4.523-6.6314 4.523-10.8841s-1.7285-8.1029-4.523-10.8841L316.4119 159.1265 421.0514 54.9396c1.4295-1.4234 1.9374-3.6198 1.1141-5.5962-0.8223-1.9763-2.7392-3.1642-4.7565-3.1519L95.4092 48.0676z" p-id="1866"></path><path d="M95.531 941.9407c-3.9373 0.0082-7.8776-1.4879-10.8841-4.4902-3.0075-3.0013-4.5097-6.9386-4.5087-10.8769l0.1382-321.1756c0.001-2.006 1.1889-3.9086 3.157-4.7258 1.9681-0.8172 4.1544-0.3154 5.5757 1.1008l107.6562 107.2005 144.34-143.742c2.7771-2.7658 6.6079-4.4759 10.838-4.4759s8.0609 1.7101 10.838 4.4759l97.9896 97.5759c2.7935 2.7822 4.522 6.6314 4.522 10.8851 0 4.2527-1.7285 8.1029-4.522 10.8841L316.4119 828.2143l104.7398 104.2852c1.4234 1.4182 1.9343 3.6055 1.1223 5.5777-0.812 1.9722-2.7146 3.1662-4.7237 3.1713L95.531 941.9407z" p-id="1867"></path><path d="M960.7096 48.0676c3.9168 0.0225 7.8264 1.535 10.8052 4.5322 2.9798 2.9983 4.4667 6.9171 4.4646 10.8339l-0.1382 318.4957c-0.001 2.006-1.1878 3.9086-3.156 4.7258-1.9681 0.8172-4.1544 0.3154-5.5757-1.0998L859.4534 278.3662 715.0991 422.0969c-2.7781 2.7658-6.6079 4.4759-10.838 4.4759s-8.0599-1.7101-10.838-4.4759l-97.9763-97.5636c-2.7945-2.7812-4.522-6.6314-4.522-10.8841 0-4.2527 1.7285-8.1029 4.522-10.8841L739.7069 159.1265 635.0674 54.9396c-1.4295-1.4234-1.9374-3.6198-1.1141-5.5962 0.8233-1.9763 2.7402-3.1642 4.7575-3.1519L960.7096 48.0676z" p-id="1868"></path><path d="M960.5868 941.9407c3.9383 0.0082 7.8776-1.4879 10.8851-4.4902 3.0075-3.0013 4.5097-6.9386 4.5076-10.8769l-0.1382-321.1756c-0.001-2.007-1.1878-3.9086-3.156-4.7258-1.9681-0.8182-4.1544-0.3164-5.5757 1.0998L859.4534 708.9736 715.1002 565.2316c-2.7781-2.7658-6.6089-4.4759-10.839-4.4759s-8.0599 1.7101-10.838 4.4769l-97.9784 97.5749c-2.7935 2.7822-4.521 6.6314-4.521 10.8851 0 4.2527 1.7285 8.1019 4.523 10.8831L739.7069 828.2143 634.9681 932.4995c-1.4244 1.4182-1.9354 3.6055-1.1223 5.5777 0.812 1.9722 2.7136 3.1662 4.7227 3.1713L960.5868 941.9407z" p-id="1869"></path></svg>