<?xml version="1.0" standalone="no"?><!DOCTYPE svg PUBLIC "-//W3C//DTD SVG 1.1//EN" "http://www.w3.org/Graphics/SVG/1.1/DTD/svg11.dtd"><svg t="1514534482106" class="icon" style="" viewBox="0 0 1024 1024" version="1.1" xmlns="http://www.w3.org/2000/svg" p-id="2524" xmlns:xlink="http://www.w3.org/1999/xlink" width="200" height="200"><defs><style type="text/css"></style></defs><path d="M980.736 335.658667 809.472 42.666667 213.461333 42.666667l-170.24 292.992c0 0 0 100.522667 0 117.248 0 31.189333 30.506667 65.237333 48.64 87.893333l-0.725333 322.218667c0 64.725333 36.352 117.162667 103.125333 117.162667l634.410667 0c66.773333 0 105.045333-52.437333 105.045333-117.162667l-1.578667-322.218667c20.522667-24.192 48.64-48.981333 48.64-87.893333C980.736 420.778667 980.736 335.658667 980.736 335.658667zM257.194667 136.704l516.693333 0 90.24 154.026667L167.338667 290.730667 257.194667 136.704zM845.653333 716.544l0 29.312 0 58.581333 0 27.989333 0 1.237333-0.256 0c-0.810667 31.744-30.933333 57.344-63.829333 57.344L242.730667 891.008c-32.896 0-59.093333-25.6-59.904-57.344L182.442667 833.664l0-117.162667 0.085333 0L182.442667 603.733333c16.981333 0 39.210667 0 54.656 0 22.656 0 54.826667-4.181333 75.989333-47.189333 23.637333 41.770667 57.685333 47.189333 99.925333 47.189333 44.629333 0 82.048-7.125333 98.474667-45.44 16.341333 37.418667 55.722667 48.341333 99.370667 48.341333 43.392 0 83.925333-12.458667 106.666667-56.021333 26.581333 43.989333 47.744 51.626667 69.504 51.626667 8.618667 0 51.114667 1.322667 58.581333 0L845.610667 716.544zM886.997333 452.906667c-0.426667 40.448-35.370667 58.581333-67.370667 58.581333-47.104 0-70.485333-28.544-70.485333-58.581333l-62.848 0c0 29.525333-32 58.581333-77.141333 58.581333-43.306667 0-73.173333-29.952-73.173333-58.581333l-59.221333 0c0 29.525333-23.381333 58.581333-66.773333 58.581333-45.141333 0-79.104-20.778667-79.104-58.581333L278.272 452.906667c0 29.44-30.677333 62.037333-74.026667 59.477333-25.088-1.408-68.693333-19.029333-68.693333-59.477333L135.552 371.712l751.445333 0L886.997333 452.906667z" p-id="2525"></path></svg>