<?xml version="1.0" standalone="no"?><!DOCTYPE svg PUBLIC "-//W3C//DTD SVG 1.1//EN" "http://www.w3.org/Graphics/SVG/1.1/DTD/svg11.dtd"><svg t="1514534829219" class="icon" style="" viewBox="0 0 1024 1024" version="1.1" xmlns="http://www.w3.org/2000/svg" p-id="10018" xmlns:xlink="http://www.w3.org/1999/xlink" width="200" height="200"><defs><style type="text/css"></style></defs><path d="M706.048 560.128c-11.264-11.264-26.624-17.92-43.008-17.92s-31.744 6.144-43.008 17.92l-8.704 8.704-9.728-9.728 33.28-36.352c33.792 15.36 70.656 23.552 107.52 23.552 67.584 0 131.072-26.112 178.688-73.728C994.304 399.36 1016.32 290.304 976.384 194.56l-14.336-35.328-157.184 155.136-88.576-88.576 157.184-155.136-35.84-14.848c-30.72-12.288-62.976-18.944-96.256-18.944-68.096 0-132.096 26.624-179.712 74.752-83.456 83.968-98.304 210.944-38.4 310.784L491.52 448.512 284.672 240.64l-1.024-74.24-166.4-101.888L20.992 160.256l101.888 163.84h75.776l201.216 201.728-322.56 270.336-1.536 1.536c-37.376 37.376-37.376 98.304 0 135.68l25.088 25.088c17.92 17.92 42.496 28.16 68.096 28.16s49.664-10.24 68.096-28.16l284.672-310.784 6.144 6.144-6.656 6.656c-11.264 11.264-17.92 26.624-17.92 43.008s6.144 31.744 17.92 43.008l218.624 220.672c11.264 11.264 26.624 17.92 43.008 17.92s31.744-6.144 43.008-17.92l99.84-99.84c11.264-11.264 17.92-26.624 17.92-43.008s-6.144-31.744-17.92-43.008l-219.648-221.184z m182.272 270.336L788.48 929.792c-2.56 2.56-5.12 3.072-6.656 3.072-1.536 0-4.608-0.512-6.656-2.56l-218.624-220.672c-2.56-2.56-2.56-5.12-2.56-6.656 0-1.536 0.512-4.608 3.072-6.656l42.496-42.496-79.872-79.872-320 348.16c-8.192 8.192-19.456 12.8-31.232 12.8s-23.04-4.608-31.744-13.312l-25.088-25.088c-17.408-17.408-17.408-45.056-0.512-62.976l364.544-305.152-256-255.488H151.04L86.016 167.936l38.4-38.4 108.032 66.048 1.024 67.072 254.976 256 103.424-86.528-14.336-19.456c-59.904-81.408-51.712-192.512 19.456-263.68 38.4-38.4 89.6-59.392 143.872-59.392 12.8 0 25.6 1.024 37.888 3.584l-135.68 133.632L803.84 387.584l136.192-134.656c13.312 66.048-6.656 134.656-55.808 183.808-37.888 37.888-88.576 58.88-142.336 58.88-35.328 0-70.144-9.216-100.864-26.624l-17.92-10.24-93.184 101.888 80.384 80.896 45.056-45.056c2.56-2.56 5.12-2.56 6.656-2.56 1.536 0 4.608 0.512 6.656 2.56l218.112 220.672c2.56 2.56 3.072 5.12 3.072 6.656 1.024 1.024 1.024 4.096-1.536 6.656z" p-id="10019"></path><path d="M146.432 835.072c-13.824 13.824-13.824 35.84 0 49.664 13.824 13.824 35.84 13.824 49.664 0 13.824-13.824 13.824-35.84 0-49.664-13.312-13.824-35.84-13.824-49.664 0z" p-id="10020"></path></svg>