<?xml version="1.0" standalone="no"?><!DOCTYPE svg PUBLIC "-//W3C//DTD SVG 1.1//EN" "http://www.w3.org/Graphics/SVG/1.1/DTD/svg11.dtd"><svg t="1512638614790" class="icon" style="" viewBox="0 0 1024 1024" version="1.1" xmlns="http://www.w3.org/2000/svg" p-id="2756" xmlns:xlink="http://www.w3.org/1999/xlink" width="200" height="200"><defs><style type="text/css"></style></defs><path d="M331.337143 1006.592c-18.870857 0-35.254857-14.189714-35.254857-32.914286 0-18.870857 16.530286-32.914286 35.254857-32.914285H677.302857c18.870857 0 35.254857 14.189714 35.254857 32.914285 0 18.870857-16.530286 32.914286-35.254857 32.914286H331.337143z m0-134.144H677.302857c18.870857 0 35.254857-14.189714 35.254857-32.914286V505.270857c0-18.870857 16.530286-32.914286 35.254857-32.914286h138.825143c18.870857 0 23.552-11.702857 11.702857-25.892571L529.115429 29.842286c-7.021714-7.021714-16.530286-9.362286-23.552-9.362286-7.021714 0-16.530286 2.340571-23.552 9.362286L112.493714 448.804571c-11.702857 14.189714-7.021714 25.892571 11.702857 25.892572h138.825143c18.870857 0 35.254857 14.189714 35.254857 32.914286v334.262857c0.146286 16.384 14.189714 30.573714 33.060572 30.573714z m35.254857-65.974857V505.270857c0-54.125714-47.104-101.229714-103.570286-101.229714h-23.552L505.563429 107.52l265.947428 298.861714h-23.552c-56.466286 0-103.570286 44.763429-103.570286 101.229715v301.202285H366.592v-2.340571z m0 0" p-id="2757"></path></svg>